<mxfile host="Electron" agent="Mozilla/5.0 (Windows NT 10.0; Win64; x64) AppleWebKit/537.36 (KHTML, like Gecko) draw.io/26.0.4 Chrome/128.0.6613.186 Electron/32.2.5 Safari/537.36" version="26.0.4" pages="6">
  <diagram name="Project Brief" id="McsNOYd1awC_-GSTT8ix">
    <mxGraphModel dx="567" dy="395" grid="1" gridSize="10" guides="1" tooltips="1" connect="1" arrows="1" fold="0" page="1" pageScale="1" pageWidth="280" pageHeight="140" math="0" shadow="0">
      <root>
        <mxCell id="0" />
        <mxCell id="1" parent="0" />
        <mxCell id="jVu8TEHV4Y3cA-Kh5VHd-1" value="&lt;h1 style=&quot;margin-top: 0px;&quot;&gt;Crow Head V4&lt;/h1&gt;&lt;p&gt;Realistic/Fantastical crow head for cosplay and LARP, designed for surviving in harsh environments and activities.&lt;/p&gt;" style="text;html=1;whiteSpace=wrap;overflow=hidden;rounded=0;" parent="1" vertex="1">
          <mxGeometry x="20" y="20" width="240" height="100" as="geometry" />
        </mxCell>
      </root>
    </mxGraphModel>
  </diagram>
  <diagram id="FQ1nKd3-7XS8y8ytSOO6" name="Brainstorm">
    <mxGraphModel dx="1417" dy="988" grid="1" gridSize="10" guides="1" tooltips="1" connect="1" arrows="1" fold="1" page="1" pageScale="1" pageWidth="1200" pageHeight="1000" math="0" shadow="0">
      <root>
        <mxCell id="0" />
        <mxCell id="1" parent="0" />
      </root>
    </mxGraphModel>
  </diagram>
  <diagram id="bUZLXmtgMYNzwVHecGjF" name="Hardware">
    <mxGraphModel dx="1120" dy="1043" grid="1" gridSize="10" guides="1" tooltips="1" connect="1" arrows="1" fold="1" page="1" pageScale="1" pageWidth="1200" pageHeight="1000" math="0" shadow="0">
      <root>
        <mxCell id="0" />
        <mxCell id="1" parent="0" />
        <mxCell id="IHCPm2_vo2Ln8C0-Q1K2-1" value="&lt;h1 style=&quot;margin-top: 0px;&quot;&gt;Hardware&lt;/h1&gt;&lt;p&gt;Hardware/Mechanical Hardware designing&lt;/p&gt;" style="text;html=1;whiteSpace=wrap;overflow=hidden;rounded=0;" vertex="1" parent="1">
          <mxGeometry x="40" y="40" width="240" height="70" as="geometry" />
        </mxCell>
      </root>
    </mxGraphModel>
  </diagram>
  <diagram id="PLsl3XGF2N7n7FYVW2_p" name="Software">
    <mxGraphModel dx="1120" dy="1043" grid="1" gridSize="10" guides="1" tooltips="1" connect="1" arrows="1" fold="1" page="1" pageScale="1" pageWidth="1200" pageHeight="1000" math="0" shadow="0">
      <root>
        <mxCell id="0" />
        <mxCell id="1" parent="0" />
        <mxCell id="O1lsgiQMoONT_z9E3lXe-1" value="&lt;h1 style=&quot;margin-top: 0px;&quot;&gt;Software&lt;/h1&gt;&lt;p&gt;Software design and implementation&lt;/p&gt;" style="text;html=1;whiteSpace=wrap;overflow=hidden;rounded=0;" vertex="1" parent="1">
          <mxGeometry x="40" y="40" width="220" height="70" as="geometry" />
        </mxCell>
      </root>
    </mxGraphModel>
  </diagram>
  <diagram id="ONOlR-nf4L4N_zsSdF6O" name="Embedded">
    <mxGraphModel dx="989" dy="692" grid="1" gridSize="10" guides="1" tooltips="1" connect="1" arrows="1" fold="1" page="1" pageScale="1" pageWidth="1200" pageHeight="1000" math="0" shadow="0">
      <root>
        <mxCell id="0" />
        <mxCell id="1" parent="0" />
        <mxCell id="gumwWXWJ7WueEhB_JHZo-2" value="Wanted Features" style="swimlane;fontStyle=0;childLayout=stackLayout;horizontal=1;startSize=20;horizontalStack=0;resizeParent=1;resizeParentMax=0;resizeLast=0;collapsible=0;marginBottom=0;whiteSpace=wrap;html=1;fontFamily=Helvetica;fontSize=11;fontColor=default;labelBackgroundColor=default;rounded=1;" parent="1" vertex="1">
          <mxGeometry x="40" y="40" width="140" height="120" as="geometry" />
        </mxCell>
        <mxCell id="gumwWXWJ7WueEhB_JHZo-3" value="Environmental Lights" style="text;strokeColor=none;fillColor=none;align=left;verticalAlign=middle;spacingLeft=4;spacingRight=4;overflow=hidden;points=[[0,0.5],[1,0.5]];portConstraint=eastwest;rotatable=0;whiteSpace=wrap;html=1;fontFamily=Helvetica;fontSize=11;fontColor=default;labelBackgroundColor=default;" parent="gumwWXWJ7WueEhB_JHZo-2" vertex="1">
          <mxGeometry y="20" width="140" height="20" as="geometry" />
        </mxCell>
        <mxCell id="gumwWXWJ7WueEhB_JHZo-4" value="Glowing Eyes" style="text;strokeColor=none;fillColor=none;align=left;verticalAlign=middle;spacingLeft=4;spacingRight=4;overflow=hidden;points=[[0,0.5],[1,0.5]];portConstraint=eastwest;rotatable=0;whiteSpace=wrap;html=1;fontFamily=Helvetica;fontSize=11;fontColor=default;labelBackgroundColor=default;" parent="gumwWXWJ7WueEhB_JHZo-2" vertex="1">
          <mxGeometry y="40" width="140" height="20" as="geometry" />
        </mxCell>
        <mxCell id="gumwWXWJ7WueEhB_JHZo-7" value="Ventilation Fans" style="text;strokeColor=none;fillColor=none;align=left;verticalAlign=middle;spacingLeft=4;spacingRight=4;overflow=hidden;points=[[0,0.5],[1,0.5]];portConstraint=eastwest;rotatable=0;whiteSpace=wrap;html=1;fontFamily=Helvetica;fontSize=11;fontColor=default;labelBackgroundColor=default;" parent="gumwWXWJ7WueEhB_JHZo-2" vertex="1">
          <mxGeometry y="60" width="140" height="20" as="geometry" />
        </mxCell>
        <mxCell id="gumwWXWJ7WueEhB_JHZo-11" value="Buttons" style="text;strokeColor=none;fillColor=none;align=left;verticalAlign=middle;spacingLeft=4;spacingRight=4;overflow=hidden;points=[[0,0.5],[1,0.5]];portConstraint=eastwest;rotatable=0;whiteSpace=wrap;html=1;fontFamily=Helvetica;fontSize=11;fontColor=default;labelBackgroundColor=default;" parent="gumwWXWJ7WueEhB_JHZo-2" vertex="1">
          <mxGeometry y="80" width="140" height="20" as="geometry" />
        </mxCell>
        <mxCell id="gumwWXWJ7WueEhB_JHZo-9" value="Bluetooth Headphones" style="text;strokeColor=none;fillColor=none;align=left;verticalAlign=middle;spacingLeft=4;spacingRight=4;overflow=hidden;points=[[0,0.5],[1,0.5]];portConstraint=eastwest;rotatable=0;whiteSpace=wrap;html=1;fontFamily=Helvetica;fontSize=11;fontColor=default;labelBackgroundColor=default;" parent="gumwWXWJ7WueEhB_JHZo-2" vertex="1">
          <mxGeometry y="100" width="140" height="20" as="geometry" />
        </mxCell>
        <mxCell id="O8Etapz_-3tgbc7j2niu-1" value="MCB" style="rounded=1;whiteSpace=wrap;html=1;" vertex="1" parent="1">
          <mxGeometry x="400" y="160" width="120" height="60" as="geometry" />
        </mxCell>
        <mxCell id="O8Etapz_-3tgbc7j2niu-35" style="edgeStyle=orthogonalEdgeStyle;rounded=0;orthogonalLoop=1;jettySize=auto;html=1;exitX=1;exitY=0.5;exitDx=0;exitDy=0;entryX=0;entryY=0.5;entryDx=0;entryDy=0;" edge="1" parent="1" source="O8Etapz_-3tgbc7j2niu-1" target="O8Etapz_-3tgbc7j2niu-11">
          <mxGeometry relative="1" as="geometry">
            <mxPoint x="560" y="190" as="sourcePoint" />
          </mxGeometry>
        </mxCell>
        <mxCell id="O8Etapz_-3tgbc7j2niu-36" style="edgeStyle=orthogonalEdgeStyle;rounded=0;orthogonalLoop=1;jettySize=auto;html=1;exitX=1;exitY=0.25;exitDx=0;exitDy=0;entryX=0;entryY=0.5;entryDx=0;entryDy=0;" edge="1" parent="1" source="O8Etapz_-3tgbc7j2niu-1" target="O8Etapz_-3tgbc7j2niu-10">
          <mxGeometry relative="1" as="geometry">
            <mxPoint x="560" y="175" as="sourcePoint" />
          </mxGeometry>
        </mxCell>
        <mxCell id="O8Etapz_-3tgbc7j2niu-38" style="edgeStyle=orthogonalEdgeStyle;rounded=0;orthogonalLoop=1;jettySize=auto;html=1;exitX=0.5;exitY=0;exitDx=0;exitDy=0;entryX=0;entryY=0.5;entryDx=0;entryDy=0;" edge="1" parent="1" source="O8Etapz_-3tgbc7j2niu-1" target="O8Etapz_-3tgbc7j2niu-9">
          <mxGeometry relative="1" as="geometry">
            <mxPoint x="500" y="160" as="sourcePoint" />
          </mxGeometry>
        </mxCell>
        <mxCell id="O8Etapz_-3tgbc7j2niu-41" style="edgeStyle=orthogonalEdgeStyle;rounded=0;orthogonalLoop=1;jettySize=auto;html=1;exitX=1;exitY=0.5;exitDx=0;exitDy=0;entryX=0.5;entryY=0;entryDx=0;entryDy=0;" edge="1" parent="1" source="O8Etapz_-3tgbc7j2niu-6" target="O8Etapz_-3tgbc7j2niu-9">
          <mxGeometry relative="1" as="geometry" />
        </mxCell>
        <mxCell id="O8Etapz_-3tgbc7j2niu-42" style="edgeStyle=orthogonalEdgeStyle;rounded=0;orthogonalLoop=1;jettySize=auto;html=1;exitX=0.25;exitY=1;exitDx=0;exitDy=0;entryX=0.25;entryY=0;entryDx=0;entryDy=0;" edge="1" parent="1" source="O8Etapz_-3tgbc7j2niu-6" target="O8Etapz_-3tgbc7j2niu-1">
          <mxGeometry relative="1" as="geometry" />
        </mxCell>
        <mxCell id="O8Etapz_-3tgbc7j2niu-6" value="Liion BMS" style="rounded=1;whiteSpace=wrap;html=1;" vertex="1" parent="1">
          <mxGeometry x="400" y="40" width="120" height="60" as="geometry" />
        </mxCell>
        <mxCell id="O8Etapz_-3tgbc7j2niu-9" value="Environmental Lights" style="rounded=1;whiteSpace=wrap;html=1;absoluteArcSize=1;arcSize=6;" vertex="1" parent="1">
          <mxGeometry x="600" y="120" width="120" height="20" as="geometry" />
        </mxCell>
        <mxCell id="O8Etapz_-3tgbc7j2niu-40" style="edgeStyle=orthogonalEdgeStyle;rounded=0;orthogonalLoop=1;jettySize=auto;html=1;exitX=1;exitY=0.5;exitDx=0;exitDy=0;entryX=0;entryY=0.5;entryDx=0;entryDy=0;" edge="1" parent="1" source="O8Etapz_-3tgbc7j2niu-10" target="O8Etapz_-3tgbc7j2niu-39">
          <mxGeometry relative="1" as="geometry" />
        </mxCell>
        <mxCell id="O8Etapz_-3tgbc7j2niu-10" value="Eyes Glow" style="rounded=1;whiteSpace=wrap;html=1;absoluteArcSize=1;arcSize=6;" vertex="1" parent="1">
          <mxGeometry x="600" y="150" width="120" height="20" as="geometry" />
        </mxCell>
        <mxCell id="O8Etapz_-3tgbc7j2niu-11" value="Fans" style="rounded=1;whiteSpace=wrap;html=1;absoluteArcSize=1;arcSize=6;" vertex="1" parent="1">
          <mxGeometry x="600" y="180" width="120" height="20" as="geometry" />
        </mxCell>
        <mxCell id="O8Etapz_-3tgbc7j2niu-47" style="edgeStyle=orthogonalEdgeStyle;rounded=0;orthogonalLoop=1;jettySize=auto;html=1;exitX=0;exitY=0.5;exitDx=0;exitDy=0;entryX=1;entryY=0.75;entryDx=0;entryDy=0;" edge="1" parent="1" source="O8Etapz_-3tgbc7j2niu-16" target="O8Etapz_-3tgbc7j2niu-1">
          <mxGeometry relative="1" as="geometry" />
        </mxCell>
        <mxCell id="O8Etapz_-3tgbc7j2niu-16" value="1x Button" style="rounded=1;whiteSpace=wrap;html=1;absoluteArcSize=1;arcSize=6;" vertex="1" parent="1">
          <mxGeometry x="600" y="210" width="120" height="20" as="geometry" />
        </mxCell>
        <mxCell id="O8Etapz_-3tgbc7j2niu-21" value="Button Sequences" style="swimlane;fontStyle=0;childLayout=stackLayout;horizontal=1;startSize=20;horizontalStack=0;resizeParent=1;resizeParentMax=0;resizeLast=0;collapsible=0;marginBottom=0;whiteSpace=wrap;html=1;fontFamily=Helvetica;fontSize=11;fontColor=default;labelBackgroundColor=default;" vertex="1" parent="1">
          <mxGeometry x="520" y="280" width="100" height="140" as="geometry" />
        </mxCell>
        <mxCell id="O8Etapz_-3tgbc7j2niu-22" value="Tap" style="text;strokeColor=none;fillColor=none;align=left;verticalAlign=middle;spacingLeft=4;spacingRight=4;overflow=hidden;points=[[0,0.5],[1,0.5]];portConstraint=eastwest;rotatable=0;whiteSpace=wrap;html=1;fontFamily=Helvetica;fontSize=11;fontColor=default;labelBackgroundColor=default;" vertex="1" parent="O8Etapz_-3tgbc7j2niu-21">
          <mxGeometry y="20" width="100" height="20" as="geometry" />
        </mxCell>
        <mxCell id="O8Etapz_-3tgbc7j2niu-23" value="Tap" style="text;strokeColor=none;fillColor=none;align=left;verticalAlign=middle;spacingLeft=4;spacingRight=4;overflow=hidden;points=[[0,0.5],[1,0.5]];portConstraint=eastwest;rotatable=0;whiteSpace=wrap;html=1;fontFamily=Helvetica;fontSize=11;fontColor=default;labelBackgroundColor=default;" vertex="1" parent="O8Etapz_-3tgbc7j2niu-21">
          <mxGeometry y="40" width="100" height="20" as="geometry" />
        </mxCell>
        <mxCell id="O8Etapz_-3tgbc7j2niu-24" value="Hold" style="text;strokeColor=none;fillColor=none;align=left;verticalAlign=middle;spacingLeft=4;spacingRight=4;overflow=hidden;points=[[0,0.5],[1,0.5]];portConstraint=eastwest;rotatable=0;whiteSpace=wrap;html=1;fontFamily=Helvetica;fontSize=11;fontColor=default;labelBackgroundColor=default;" vertex="1" parent="O8Etapz_-3tgbc7j2niu-21">
          <mxGeometry y="60" width="100" height="20" as="geometry" />
        </mxCell>
        <mxCell id="O8Etapz_-3tgbc7j2niu-29" value="Tap Hold" style="text;strokeColor=none;fillColor=none;align=left;verticalAlign=middle;spacingLeft=4;spacingRight=4;overflow=hidden;points=[[0,0.5],[1,0.5]];portConstraint=eastwest;rotatable=0;whiteSpace=wrap;html=1;fontFamily=Helvetica;fontSize=11;fontColor=default;labelBackgroundColor=default;" vertex="1" parent="O8Etapz_-3tgbc7j2niu-21">
          <mxGeometry y="80" width="100" height="20" as="geometry" />
        </mxCell>
        <mxCell id="O8Etapz_-3tgbc7j2niu-31" value="Tap Tap Hold" style="text;strokeColor=none;fillColor=none;align=left;verticalAlign=middle;spacingLeft=4;spacingRight=4;overflow=hidden;points=[[0,0.5],[1,0.5]];portConstraint=eastwest;rotatable=0;whiteSpace=wrap;html=1;fontFamily=Helvetica;fontSize=11;fontColor=default;labelBackgroundColor=default;" vertex="1" parent="O8Etapz_-3tgbc7j2niu-21">
          <mxGeometry y="100" width="100" height="20" as="geometry" />
        </mxCell>
        <mxCell id="O8Etapz_-3tgbc7j2niu-33" value="Tap Tap Tap" style="text;strokeColor=none;fillColor=none;align=left;verticalAlign=middle;spacingLeft=4;spacingRight=4;overflow=hidden;points=[[0,0.5],[1,0.5]];portConstraint=eastwest;rotatable=0;whiteSpace=wrap;html=1;fontFamily=Helvetica;fontSize=11;fontColor=default;labelBackgroundColor=default;" vertex="1" parent="O8Etapz_-3tgbc7j2niu-21">
          <mxGeometry y="120" width="100" height="20" as="geometry" />
        </mxCell>
        <mxCell id="O8Etapz_-3tgbc7j2niu-25" value="Button Function" style="swimlane;fontStyle=0;childLayout=stackLayout;horizontal=1;startSize=20;horizontalStack=0;resizeParent=1;resizeParentMax=0;resizeLast=0;collapsible=0;marginBottom=0;whiteSpace=wrap;html=1;fontFamily=Helvetica;fontSize=11;fontColor=default;labelBackgroundColor=default;" vertex="1" parent="1">
          <mxGeometry x="620" y="280" width="140" height="140" as="geometry" />
        </mxCell>
        <mxCell id="O8Etapz_-3tgbc7j2niu-26" value="Turn System On" style="text;strokeColor=none;fillColor=none;align=left;verticalAlign=middle;spacingLeft=4;spacingRight=4;overflow=hidden;points=[[0,0.5],[1,0.5]];portConstraint=eastwest;rotatable=0;whiteSpace=wrap;html=1;fontFamily=Helvetica;fontSize=11;fontColor=default;labelBackgroundColor=default;" vertex="1" parent="O8Etapz_-3tgbc7j2niu-25">
          <mxGeometry y="20" width="140" height="20" as="geometry" />
        </mxCell>
        <mxCell id="O8Etapz_-3tgbc7j2niu-27" value="Mode/Anim Change" style="text;strokeColor=none;fillColor=none;align=left;verticalAlign=middle;spacingLeft=4;spacingRight=4;overflow=hidden;points=[[0,0.5],[1,0.5]];portConstraint=eastwest;rotatable=0;whiteSpace=wrap;html=1;fontFamily=Helvetica;fontSize=11;fontColor=default;labelBackgroundColor=default;" vertex="1" parent="O8Etapz_-3tgbc7j2niu-25">
          <mxGeometry y="40" width="140" height="20" as="geometry" />
        </mxCell>
        <mxCell id="O8Etapz_-3tgbc7j2niu-28" value="Turn System Off" style="text;strokeColor=none;fillColor=none;align=left;verticalAlign=middle;spacingLeft=4;spacingRight=4;overflow=hidden;points=[[0,0.5],[1,0.5]];portConstraint=eastwest;rotatable=0;whiteSpace=wrap;html=1;fontFamily=Helvetica;fontSize=11;fontColor=default;labelBackgroundColor=default;" vertex="1" parent="O8Etapz_-3tgbc7j2niu-25">
          <mxGeometry y="60" width="140" height="20" as="geometry" />
        </mxCell>
        <mxCell id="O8Etapz_-3tgbc7j2niu-30" value="Env Lights ++" style="text;strokeColor=none;fillColor=none;align=left;verticalAlign=middle;spacingLeft=4;spacingRight=4;overflow=hidden;points=[[0,0.5],[1,0.5]];portConstraint=eastwest;rotatable=0;whiteSpace=wrap;html=1;fontFamily=Helvetica;fontSize=11;fontColor=default;labelBackgroundColor=default;" vertex="1" parent="O8Etapz_-3tgbc7j2niu-25">
          <mxGeometry y="80" width="140" height="20" as="geometry" />
        </mxCell>
        <mxCell id="O8Etapz_-3tgbc7j2niu-32" value="Env Lights --" style="text;strokeColor=none;fillColor=none;align=left;verticalAlign=middle;spacingLeft=4;spacingRight=4;overflow=hidden;points=[[0,0.5],[1,0.5]];portConstraint=eastwest;rotatable=0;whiteSpace=wrap;html=1;fontFamily=Helvetica;fontSize=11;fontColor=default;labelBackgroundColor=default;" vertex="1" parent="O8Etapz_-3tgbc7j2niu-25">
          <mxGeometry y="100" width="140" height="20" as="geometry" />
        </mxCell>
        <mxCell id="O8Etapz_-3tgbc7j2niu-34" value="Env Off/On" style="text;strokeColor=none;fillColor=none;align=left;verticalAlign=middle;spacingLeft=4;spacingRight=4;overflow=hidden;points=[[0,0.5],[1,0.5]];portConstraint=eastwest;rotatable=0;whiteSpace=wrap;html=1;fontFamily=Helvetica;fontSize=11;fontColor=default;labelBackgroundColor=default;" vertex="1" parent="O8Etapz_-3tgbc7j2niu-25">
          <mxGeometry y="120" width="140" height="20" as="geometry" />
        </mxCell>
        <mxCell id="O8Etapz_-3tgbc7j2niu-49" style="edgeStyle=orthogonalEdgeStyle;rounded=0;orthogonalLoop=1;jettySize=auto;html=1;exitX=1;exitY=0.5;exitDx=0;exitDy=0;entryX=0;entryY=0.5;entryDx=0;entryDy=0;" edge="1" parent="1" source="O8Etapz_-3tgbc7j2niu-39" target="O8Etapz_-3tgbc7j2niu-48">
          <mxGeometry relative="1" as="geometry" />
        </mxCell>
        <mxCell id="O8Etapz_-3tgbc7j2niu-39" value="Mode LED" style="rounded=1;whiteSpace=wrap;html=1;absoluteArcSize=1;arcSize=6;" vertex="1" parent="1">
          <mxGeometry x="760" y="150" width="120" height="20" as="geometry" />
        </mxCell>
        <mxCell id="O8Etapz_-3tgbc7j2niu-45" style="edgeStyle=orthogonalEdgeStyle;rounded=0;orthogonalLoop=1;jettySize=auto;html=1;exitX=1;exitY=0.5;exitDx=0;exitDy=0;entryX=0;entryY=0.5;entryDx=0;entryDy=0;startArrow=classic;startFill=1;" edge="1" parent="1" source="O8Etapz_-3tgbc7j2niu-44" target="O8Etapz_-3tgbc7j2niu-1">
          <mxGeometry relative="1" as="geometry" />
        </mxCell>
        <mxCell id="O8Etapz_-3tgbc7j2niu-46" style="edgeStyle=orthogonalEdgeStyle;rounded=0;orthogonalLoop=1;jettySize=auto;html=1;exitX=1;exitY=0.25;exitDx=0;exitDy=0;entryX=0;entryY=0.5;entryDx=0;entryDy=0;startArrow=classic;startFill=1;" edge="1" parent="1" source="O8Etapz_-3tgbc7j2niu-44" target="O8Etapz_-3tgbc7j2niu-6">
          <mxGeometry relative="1" as="geometry" />
        </mxCell>
        <mxCell id="O8Etapz_-3tgbc7j2niu-44" value="USBC" style="rounded=1;whiteSpace=wrap;html=1;" vertex="1" parent="1">
          <mxGeometry x="240" y="160" width="120" height="60" as="geometry" />
        </mxCell>
        <mxCell id="O8Etapz_-3tgbc7j2niu-48" value="Button Seq LEDs" style="rounded=1;whiteSpace=wrap;html=1;absoluteArcSize=1;arcSize=6;" vertex="1" parent="1">
          <mxGeometry x="920" y="150" width="120" height="20" as="geometry" />
        </mxCell>
        <mxCell id="O8Etapz_-3tgbc7j2niu-54" style="edgeStyle=orthogonalEdgeStyle;rounded=0;orthogonalLoop=1;jettySize=auto;html=1;exitX=1;exitY=0.25;exitDx=0;exitDy=0;entryX=0;entryY=0.5;entryDx=0;entryDy=0;" edge="1" parent="1" source="O8Etapz_-3tgbc7j2niu-51" target="O8Etapz_-3tgbc7j2niu-53">
          <mxGeometry relative="1" as="geometry" />
        </mxCell>
        <mxCell id="O8Etapz_-3tgbc7j2niu-55" style="edgeStyle=orthogonalEdgeStyle;rounded=0;orthogonalLoop=1;jettySize=auto;html=1;exitX=1;exitY=0.5;exitDx=0;exitDy=0;entryX=0;entryY=0.5;entryDx=0;entryDy=0;" edge="1" parent="1" source="O8Etapz_-3tgbc7j2niu-51" target="O8Etapz_-3tgbc7j2niu-52">
          <mxGeometry relative="1" as="geometry" />
        </mxCell>
        <mxCell id="O8Etapz_-3tgbc7j2niu-51" value="BLE Transceiver" style="rounded=1;whiteSpace=wrap;html=1;" vertex="1" parent="1">
          <mxGeometry x="240" y="520" width="120" height="60" as="geometry" />
        </mxCell>
        <mxCell id="O8Etapz_-3tgbc7j2niu-52" value="Microphone" style="rounded=1;whiteSpace=wrap;html=1;" vertex="1" parent="1">
          <mxGeometry x="420" y="540" width="120" height="20" as="geometry" />
        </mxCell>
        <mxCell id="O8Etapz_-3tgbc7j2niu-53" value="Speakers" style="rounded=1;whiteSpace=wrap;html=1;" vertex="1" parent="1">
          <mxGeometry x="420" y="510" width="120" height="20" as="geometry" />
        </mxCell>
        <mxCell id="O8Etapz_-3tgbc7j2niu-58" style="edgeStyle=orthogonalEdgeStyle;rounded=0;orthogonalLoop=1;jettySize=auto;html=1;exitX=0;exitY=0.5;exitDx=0;exitDy=0;entryX=1;entryY=0.75;entryDx=0;entryDy=0;" edge="1" parent="1" source="O8Etapz_-3tgbc7j2niu-56" target="O8Etapz_-3tgbc7j2niu-51">
          <mxGeometry relative="1" as="geometry" />
        </mxCell>
        <mxCell id="O8Etapz_-3tgbc7j2niu-56" value="3x Buttons" style="rounded=1;whiteSpace=wrap;html=1;" vertex="1" parent="1">
          <mxGeometry x="420" y="570" width="120" height="20" as="geometry" />
        </mxCell>
        <mxCell id="O8Etapz_-3tgbc7j2niu-59" value="Button Functions" style="swimlane;fontStyle=0;childLayout=stackLayout;horizontal=1;startSize=20;horizontalStack=0;resizeParent=1;resizeParentMax=0;resizeLast=0;collapsible=0;marginBottom=0;whiteSpace=wrap;html=1;fontFamily=Helvetica;fontSize=11;fontColor=default;labelBackgroundColor=default;rounded=1;" vertex="1" parent="1">
          <mxGeometry x="580" y="510" width="140" height="80" as="geometry" />
        </mxCell>
        <mxCell id="O8Etapz_-3tgbc7j2niu-60" value="1: Up Volume" style="text;strokeColor=none;fillColor=none;align=left;verticalAlign=middle;spacingLeft=4;spacingRight=4;overflow=hidden;points=[[0,0.5],[1,0.5]];portConstraint=eastwest;rotatable=0;whiteSpace=wrap;html=1;fontFamily=Helvetica;fontSize=11;fontColor=default;labelBackgroundColor=default;" vertex="1" parent="O8Etapz_-3tgbc7j2niu-59">
          <mxGeometry y="20" width="140" height="20" as="geometry" />
        </mxCell>
        <mxCell id="O8Etapz_-3tgbc7j2niu-61" value="2: Play/Pause/Next/Prev" style="text;strokeColor=none;fillColor=none;align=left;verticalAlign=middle;spacingLeft=4;spacingRight=4;overflow=hidden;points=[[0,0.5],[1,0.5]];portConstraint=eastwest;rotatable=0;whiteSpace=wrap;html=1;fontFamily=Helvetica;fontSize=11;fontColor=default;labelBackgroundColor=default;" vertex="1" parent="O8Etapz_-3tgbc7j2niu-59">
          <mxGeometry y="40" width="140" height="20" as="geometry" />
        </mxCell>
        <mxCell id="O8Etapz_-3tgbc7j2niu-62" value="3: Down Volume" style="text;strokeColor=none;fillColor=none;align=left;verticalAlign=middle;spacingLeft=4;spacingRight=4;overflow=hidden;points=[[0,0.5],[1,0.5]];portConstraint=eastwest;rotatable=0;whiteSpace=wrap;html=1;fontFamily=Helvetica;fontSize=11;fontColor=default;labelBackgroundColor=default;" vertex="1" parent="O8Etapz_-3tgbc7j2niu-59">
          <mxGeometry y="60" width="140" height="20" as="geometry" />
        </mxCell>
      </root>
    </mxGraphModel>
  </diagram>
  <diagram id="BfkG9xM3Ei5bP7VQ1RNh" name="System">
    <mxGraphModel dx="1120" dy="1043" grid="1" gridSize="10" guides="1" tooltips="1" connect="1" arrows="1" fold="1" page="1" pageScale="1" pageWidth="1200" pageHeight="1000" math="0" shadow="0">
      <root>
        <mxCell id="0" />
        <mxCell id="1" parent="0" />
        <mxCell id="n4R0kfJeCWXGuMW6Snkg-1" value="&lt;h1 style=&quot;margin-top: 0px;&quot;&gt;Overall System&lt;/h1&gt;&lt;p&gt;Combination of hardware, software and embedded systems where the overall performing proceedures are designed&lt;/p&gt;" style="text;html=1;whiteSpace=wrap;overflow=hidden;rounded=0;" vertex="1" parent="1">
          <mxGeometry x="40" y="40" width="340" height="80" as="geometry" />
        </mxCell>
      </root>
    </mxGraphModel>
  </diagram>
</mxfile>
